<?xml version="1.0" standalone="no"?>
<!DOCTYPE svg PUBLIC "-//W3C//DTD SVG 20010904//EN"
 "http://www.w3.org/TR/2001/REC-SVG-20010904/DTD/svg10.dtd">
<svg version="1.0" xmlns="http://www.w3.org/2000/svg"
 width="336.000000pt" height="336.000000pt" viewBox="0 0 336.000000 336.000000"
 preserveAspectRatio="xMidYMid meet">
<metadata>
Created by potrace 1.11, written by Peter Selinger 2001-2013
</metadata>
<g transform="translate(0.000000,336.000000) scale(0.100000,-0.100000)"
fill="#000000" stroke="none">
<path d="M2982 3034 c-21 -14 -22 -22 -22 -145 0 -72 5 -139 10 -150 10 -17
23 -19 153 -19 98 0 147 4 155 12 8 8 12 57 12 155 0 130 -2 143 -19 153 -11
5 -75 10 -143 10 -96 0 -129 -4 -146 -16z"/>
<path d="M2740 2986 c0 -60 4 -63 75 -62 l40 1 3 58 3 57 -61 0 -60 0 0 -54z"/>
<path d="M2229 2898 c0 -7 -1 -33 -2 -58 l-2 -45 -105 -3 c-57 -2 -110 -8
-117 -14 -7 -6 -13 -32 -13 -58 l0 -48 -147 0 c-217 1 -356 -29 -539 -117
-173 -84 -350 -239 -456 -399 -125 -192 -205 -462 -197 -669 2 -54 0 -60 -34
-95 -21 -21 -34 -42 -30 -47 5 -4 3 -5 -3 -2 -6 4 -69 -53 -140 -126 -160
-164 -196 -207 -84 -102 47 44 112 105 145 137 33 31 76 69 95 85 19 15 37 31
38 36 8 17 22 5 22 -19 0 -19 -15 -39 -52 -72 -263 -232 -449 -455 -534 -637
-34 -72 -33 -153 2 -194 43 -51 110 -65 284 -58 181 8 265 27 459 109 110 47
197 98 166 98 -12 0 -62 -9 -112 -20 -216 -47 -429 -63 -515 -40 -67 19 -86
76 -48 149 32 63 129 177 266 314 70 70 131 127 134 127 3 0 17 -33 32 -73 27
-70 87 -179 138 -248 14 -19 70 -79 125 -134 222 -223 494 -335 813 -335 144
0 257 18 387 61 378 126 676 463 762 859 27 126 25 394 -4 511 -32 127 -95
277 -152 364 l-20 30 93 -3 c72 -3 95 0 105 11 8 10 11 46 9 108 l-3 94 -47 3
-48 3 0 78 c0 55 -4 82 -14 90 -9 8 -60 11 -157 9 l-144 -3 -3 -79 -3 -79 -22
20 c-37 34 -121 90 -178 119 -30 14 -56 30 -59 34 -3 4 -4 40 -2 78 l4 71 46
3 47 3 0 90 0 90 -92 3 c-70 2 -93 0 -94 -10z m551 -685 l0 -27 -20 22 c-11
12 -20 24 -20 27 0 3 9 5 20 5 15 0 20 -7 20 -27z m-835 -413 c3 -6 -1 -7 -9
-4 -18 7 -21 14 -7 14 6 0 13 -4 16 -10z m-410 -150 c-3 -5 -12 -10 -18 -10
-7 0 -6 4 3 10 19 12 23 12 15 0z m-595 -24 c0 -3 -4 -8 -10 -11 -5 -3 -10 -1
-10 4 0 6 5 11 10 11 6 0 10 -2 10 -4z m-39 -23 c13 -16 12 -17 -3 -4 -10 7
-18 15 -18 17 0 8 8 3 21 -13z m609 7 c-8 -5 -19 -10 -25 -10 -5 0 -3 5 5 10
8 5 20 10 25 10 6 0 3 -5 -5 -10z m-435 -270 c-3 -5 -16 -15 -28 -21 -21 -10
-21 -9 2 10 25 23 36 27 26 11z"/>
<path d="M2580 2834 c-11 -29 -13 -101 -4 -156 l7 -38 103 0 104 0 0 104 c0
85 -3 105 -16 110 -9 3 -54 6 -100 6 -81 0 -85 -1 -94 -26z"/>
<path d="M2942 2612 c-9 -6 -12 -33 -10 -98 l3 -89 84 -3 c46 -2 89 2 94 7 14
14 9 174 -6 183 -16 10 -149 10 -165 0z"/>
<path d="M3170 2319 l0 -60 58 3 57 3 3 49 c4 58 -3 64 -70 64 l-48 1 0 -60z
m100 -29 c0 -5 -5 -10 -11 -10 -5 0 -7 5 -4 10 3 6 8 10 11 10 2 0 4 -4 4 -10z"/>
</g>
</svg>
